<svg id="Layer_1" data-name="Layer 1" xmlns="http://www.w3.org/2000/svg" viewBox="0 0 777.25 700.62"><title>2</title><path d="M292.44,938.33c8.45-29.57,29.53-45.17,58.07-52.55,24.37-6.3,48.56-13.5,73.18-18.55,11.69-2.4,14.61-7.18,14.09-18.38a1402.13,1402.13,0,0,0-26.33-215.07C405.18,603,397.33,572.46,390,541.86c-3.16-13.19.09-23.3,11.52-31.42q143.16-101.71,318.12-87.83c87.2,6.75,166.46,35.07,237.87,85.86C971.32,518.3,975.3,528.7,971,545c-26,99-42.33,199.57-46.85,302-.56,12.72,2.8,18,15.63,20.8,26.81,5.78,53.71,12,79.63,20.86,47.2,16.06,62.23,55,40.55,100.2-11.58,24.13-30.47,41.43-52.25,56-50.06,33.44-106.48,50.5-164.75,61.24-130,24-259.29,21.17-387-15.5-37.65-10.81-73.44-25.88-105.9-48.27-27.72-19.12-47.64-43.95-57.64-76.37ZM675.14,882c67.27-1.3,128.83-7,189.13-23.19,10.4-2.79,15.62-6.4,16.38-19.08,5.76-96.92,18.75-192.85,43.35-287,2.28-8.73.66-14.11-8-19.63-56.52-36.24-117.86-58.06-184.58-65.36C629.15,456.61,534.25,477.31,447,532.4c-7.64,4.83-11.82,9.45-9.29,19.13,24.94,95.23,37.71,192.36,43.75,290.43.69,11.25,5.85,14.3,14.86,16.73C556.57,875,618.12,880.86,675.14,882Zm15.38,194.75c42.68,1.47,95.79-3.88,148.25-14.46,53.55-10.81,105.73-26,151-58.51,14.16-10.2,26.6-22,32.79-38.94,6.49-17.75,2.55-27.15-14.92-34.08-16-6.34-32.8-9.86-49.61-13.42-36.63-7.75-37.28-7.92-36.51,28.24.39,18-6.5,27-23.94,31.65a773.82,773.82,0,0,1-138.63,24.06c-96.89,7.84-192.68,2.59-287-21.83-28.92-7.49-30.93-10.32-31.06-39.85,0-6.33-.56-12.69-.06-19,.82-10.23-4.28-11.61-12.56-9.5-23.28,5.93-46.83,11-69.81,17.88-22.42,6.74-27.44,20-16.67,41.09a82.84,82.84,0,0,0,14.19,19.31c22.82,23.75,51.84,37.61,82.06,48.85C515.86,1067.28,596.92,1077.05,690.52,1076.78Z" transform="translate(-292.44 -421)"/>
  <style>
    root {
      --svg-fill-light: #000000; /* Fill color for light mode */
      --svg-fill-dark: #ffffff;  /* Fill color for dark mode */
    }
    
    @media (prefers-color-scheme: dark) {
      .svg-path {
        fill: var(--svg-fill-dark);
      }
    }
    
    @media (prefers-color-scheme: light) {
      .svg-path {
        fill: var(--svg-fill-light);
      }
    }
  </style>
</svg>