<?xml version="1.0" encoding="UTF-8" standalone="no"?>
<!DOCTYPE svg PUBLIC "-//W3C//DTD SVG 1.1//EN" "http://www.w3.org/Graphics/SVG/1.1/DTD/svg11.dtd">
<svg width="100%" height="100%" viewBox="0 0 62 62" version="1.1" xmlns="http://www.w3.org/2000/svg" xmlns:xlink="http://www.w3.org/1999/xlink" xml:space="preserve" xmlns:serif="http://www.serif.com/" style="fill-rule:evenodd;clip-rule:evenodd;stroke-linejoin:round;stroke-miterlimit:2;">
    <g transform="matrix(0.48,0,0,0.48,0,0)">
        <g transform="matrix(1.24585,0,0,1.24585,-24.453,-21.4556)">
            <circle cx="70.998" cy="68.592" r="49.105" style="fill:rgb(16,15,15);"/>
        </g>
        <g transform="matrix(0.812259,0,0,0.812259,16.269,12.0599)">
            <g transform="matrix(3.27644,0,0,3.27644,-2330.89,-3250.41)">
                <path d="M740.075,1015.42L736.483,1015.44C735.969,1015.45 735.806,1017.63 735.539,1018.63C735.273,1019.63 734.848,1020.5 734.264,1021.23C733.681,1021.96 732.956,1022.55 732.089,1022.98C731.223,1023.41 730.189,1023.63 728.989,1023.63C727.189,1023.63 725.764,1023.11 724.714,1022.08C723.664,1021.05 723.073,1019.61 722.939,1017.78C722.873,1016.58 723.023,1015.55 723.389,1014.68C723.756,1013.81 724.248,1013.02 724.864,1012.31C725.481,1011.59 726.148,1010.9 726.864,1010.25C727.581,1009.61 728.264,1008.9 728.914,1008.13C729.564,1007.36 730.114,1006.48 730.564,1005.48C730.896,1004.74 730.981,1004.2 731.003,1003.97C731.01,1003.88 730.949,1003.86 730.949,1003.86C730.949,1003.86 727.284,1003.85 727.274,1003.85C726.854,1003.85 726.125,1005.18 725.714,1005.75C725.298,1006.34 724.831,1006.89 724.314,1007.4C723.798,1007.92 723.273,1008.43 722.739,1008.93C722.173,1009.46 721.631,1010.01 721.114,1010.58C720.598,1011.15 720.139,1011.76 719.739,1012.43C719.339,1013.1 719.023,1013.84 718.789,1014.65C718.556,1015.47 718.439,1016.38 718.439,1017.38C718.439,1018.98 718.698,1020.4 719.214,1021.63C719.731,1022.86 720.456,1023.9 721.389,1024.76C722.323,1025.61 723.439,1026.26 724.739,1026.7C726.039,1027.15 727.456,1027.38 728.989,1027.38C730.723,1027.38 732.289,1027.07 733.689,1026.45C735.089,1025.84 736.281,1025 737.264,1023.93C738.248,1022.86 738.989,1021.61 739.489,1020.15C739.989,1018.71 740.542,1015.42 740.075,1015.42Z" style="fill:white;fill-rule:nonzero;"/>
            </g>
            <g transform="matrix(0.289539,0,0,0.289539,-291.04,-418.152)">
                <path d="M1232.32,1495.84L1232.32,1524.86C1232.32,1530.2 1227.99,1534.53 1222.65,1534.53L1193.63,1534.53C1188.29,1534.53 1183.95,1530.2 1183.95,1524.86L1183.95,1495.84C1183.95,1490.5 1188.29,1486.16 1193.63,1486.16L1222.65,1486.16C1227.99,1486.16 1232.32,1490.5 1232.32,1495.84Z" style="fill:white;"/>
            </g>
        </g>
    </g>
</svg>
