<?xml version="1.0" encoding="UTF-8" standalone="no"?><!DOCTYPE svg PUBLIC "-//W3C//DTD SVG 1.1//EN" "http://www.w3.org/Graphics/SVG/1.1/DTD/svg11.dtd"><svg width="100%" height="100%" viewBox="0 0 32 32" version="1.1" xmlns="http://www.w3.org/2000/svg" xmlns:xlink="http://www.w3.org/1999/xlink" xml:space="preserve" xmlns:serif="http://www.serif.com/" style="fill-rule:evenodd;clip-rule:evenodd;stroke-linejoin:round;stroke-miterlimit:2;"><circle cx="16.007" cy="16.062" r="15.972" style="fill:#fff;"/><g><path d="M9.614,8.999c-0.097,-0.603 0.199,-1.202 0.738,-1.491c1.858,-0.96 6.312,-2.7 10.565,-0.058c0.46,0.286 0.72,0.807 0.67,1.346c-0.212,2.365 -0.828,9.085 -1.024,11.229c-0.034,0.364 0.231,0.688 0.595,0.727c0.503,0.048 1.101,0.114 1.388,0.174c0.827,0.173 1.425,0.334 1.781,0.895c0.855,1.347 0.472,4.264 -3.127,4.087c-0.031,-0.002 -0.062,-0.005 -0.092,-0.009c-0.317,-0.052 -2.4,-0.453 -4.849,-2.423c0,0 -2.265,-1.742 -4.023,-2.324c-0.439,-0.144 -0.761,-0.521 -0.834,-0.977c-0.364,-2.272 -1.395,-8.717 -1.788,-11.176Z"/><path d="M14.955,24.514c0.048,0.003 0.093,-0.025 0.111,-0.07c0.018,-0.045 0.005,-0.096 -0.032,-0.127c-0.912,-0.751 -4.49,-3.122 -6.974,-1.919c-1.001,0.484 -1.018,2.194 -0.105,3.333c0.307,0.383 0.893,0.324 3.41,-0.71c1.03,-0.422 1.902,-0.622 3.59,-0.507Z"/></g></svg>